<?xml version="1.0" encoding="utf-8"?>
<svg data-v-1e121de1="" version="1.0" viewBox="0 0 252.9 70.3" preserveAspectRatio="xMidYMid meet" color-interpolation-filters="sRGB" style="margin: auto;" xmlns="http://www.w3.org/2000/svg">
  <g data-v-1e121de1="" fill="#444" class="linesvg">
    <polyline stroke="#444" stroke-width="3" fill-opacity="0" points="0,17.375229835510254 0,0 17.375229835510254,0"/>
    <polyline stroke="#444" stroke-width="3" fill-opacity="0" points="235.49191188812256,70.33394622802734 252.8671417236328,70.33394622802734 252.8671417236328,52.95871639251709"/>
    <polyline stroke="#444" stroke-width="3" fill-opacity="0" points="252.8671417236328,17.375229835510254 252.8671417236328,0 235.49191188812256,0"/>
    <polyline stroke="#444" stroke-width="3" fill-opacity="0" points="17.375229835510254,70.33394622802734 0,70.33394622802734 0,52.95871639251709"/>
    <g fill="#444" transform="translate(12,12)">
      <g fill-rule="" class="tp-name" transform="translate(0.8735733032226562,0)">
        <g>
          <path d="M13.80-5.16L13.80-5.16L13.20-5.76Q12.00-6.84 12.00-7.80L12.00-7.80Q12.12-9.72 14.28-9.96L14.28-9.96Q15.24-9.96 16.20-9.12L16.20-9.12L16.80-8.52Q17.16-9.60 17.16-11.04L17.16-11.04Q16.92-16.92 12.72-17.16L12.72-17.16Q8.52-16.92 8.40-11.04L8.40-11.04Q8.40-5.16 12.72-5.04L12.72-5.04Q13.20-4.92 13.80-5.16ZM19.32 0.48L19.32 0.48L18.12-0.60Q15.60 0.12 12.72 0.24L12.72 0.24Q1.56-0.12 1.32-11.04L1.32-11.04Q1.80-21.84 12.72-22.68L12.72-22.68Q23.64-21.84 24.24-11.04L24.24-11.04Q24.12-6.24 21.72-3.36L21.72-3.36L22.56-2.52Q23.88-1.08 23.88-0.36L23.88-0.36Q23.52 1.44 21.48 1.68L21.48 1.68Q20.52 1.68 19.32 0.48ZM43.79-19.08L45.71-7.68L47.75-19.68Q47.99-22.44 51.11-22.56L51.11-22.56Q53.99-22.32 54.23-19.44L54.23-19.44Q54.23-18.72 53.75-16.68L53.75-16.68Q53.63-16.08 53.51-15.36L53.51-15.36L50.39-2.76Q49.67 0.12 46.67 0.12L46.67 0.12L45.59 0.12Q42.59 0.12 42.23-2.88L42.23-2.88L40.19-13.08L38.27-2.88Q37.55 0.12 34.79 0.12L34.79 0.12L33.71 0.12Q30.59 0.12 29.99-2.76L29.99-2.76L27.00-15.36Q26.16-18.00 26.16-19.44L26.16-19.44Q26.28-22.32 29.39-22.56L29.39-22.56Q32.15-22.44 32.75-19.68L32.75-19.68L34.67-7.68L36.59-19.08Q37.07-22.68 40.19-22.56L40.19-22.56Q43.31-22.68 43.79-19.08L43.79-19.08ZM71.51-6.60L71.51-6.60L62.51-6.60Q62.75-3.24 65.87-3.24L65.87-3.24Q66.95-3.24 68.87-4.32L68.87-4.32Q70.55-5.28 71.51-5.28L71.51-5.28Q73.19-5.04 73.43-3.12L73.43-3.12Q73.07 0 65.15 0.12L65.15 0.12Q56.27 0 56.15-8.04L56.15-8.04Q56.39-16.08 65.15-16.44L65.15-16.44Q73.31-16.08 74.39-9.24L74.39-9.24Q74.39-6.48 71.51-6.60ZM62.51-9.72L62.51-9.72L68.39-9.72Q68.27-12.60 65.51-12.72L65.51-12.72Q62.63-12.60 62.51-9.72ZM77.03-2.64L77.03-2.64L77.03-19.32Q77.03-22.56 80.15-22.56L80.15-22.56Q83.03-22.56 83.15-19.32L83.15-19.32L83.15-14.04L83.27-14.04Q84.59-16.32 87.70-16.44L87.70-16.44Q93.94-16.08 94.66-8.04L94.66-8.04Q94.30 0 87.46 0.12L87.46 0.12Q83.51 0 82.67-2.52L82.67-2.52Q82.55 0 79.91 0.12L79.91 0.12Q76.91 0.12 77.03-2.64ZM83.03-8.04L83.03-8.04Q83.03-4.20 85.67-4.20L85.67-4.20Q88.30-4.20 88.42-7.92L88.42-7.92Q88.30-11.40 85.55-11.52L85.55-11.52Q83.03-11.28 83.03-8.04ZM97.06-11.04L97.06-11.04Q97.54-21.84 108.46-22.68L108.46-22.68Q116.62-22.08 117.70-16.44L117.70-16.44Q117.46-13.44 114.34-13.32L114.34-13.32Q112.66-13.08 111.58-15.24L111.58-15.24Q110.38-17.16 108.10-17.16L108.10-17.16Q104.26-16.80 104.14-11.04L104.14-11.04Q104.14-5.16 108.46-5.04L108.46-5.04Q110.14-4.80 111.82-7.32L111.82-7.32Q112.78-8.76 114.46-8.76L114.46-8.76Q117.46-8.52 117.70-5.76L117.70-5.76Q116.98-0.36 108.46 0.24L108.46 0.24Q97.30-0.12 97.06-11.04ZM131.02-2.76L131.02-2.76L131.02-8.76Q130.90-11.40 128.62-11.52L128.62-11.52Q126.34-11.40 126.34-8.40L126.34-8.40L126.34-2.76Q126.22 0 123.10 0.12L123.10 0.12Q119.98 0 119.98-2.76L119.98-2.76L119.98-19.44Q119.98-22.32 123.10-22.56L123.10-22.56Q126.22-22.44 126.34-19.44L126.34-19.44L126.34-13.92Q128.02-16.44 131.14-16.44L131.14-16.44Q137.14-16.32 137.26-10.32L137.26-10.32L137.26-2.76Q137.14 0 134.14 0.12L134.14 0.12Q131.02 0 131.02-2.76ZM151.65-5.40L151.65-5.40L151.65-7.20Q151.05-6.60 149.13-6.24L149.13-6.24Q148.17-6.24 147.57-6.00L147.57-6.00Q146.73-5.64 146.73-4.68L146.73-4.68Q146.85-3.24 148.65-3.12L148.65-3.12Q151.29-3.24 151.65-5.40ZM157.77-11.76L157.77-11.76L157.77-4.68Q157.77-4.08 157.89-3.00L157.89-3.00Q158.01-2.16 158.01-1.80L158.01-1.80Q157.89 0 155.01 0.12L155.01 0.12Q152.13 0.12 151.89-2.16L151.89-2.16Q150.21 0 146.25 0.12L146.25 0.12Q140.26 0 140.26-4.56L140.26-4.56Q140.14-9.12 148.41-9.60L148.41-9.60Q151.89-9.72 151.65-11.16L151.65-11.16Q151.65-12.72 149.13-12.72L149.13-12.72Q147.57-12.72 145.89-11.52L145.89-11.52Q144.57-10.56 143.62-10.56L143.62-10.56Q141.58-10.56 141.58-12.60L141.58-12.60Q142.06-16.08 149.37-16.44L149.37-16.44Q157.65-16.20 157.77-11.76ZM171.93-2.76L171.93-2.76L171.93-8.76Q171.81-11.40 169.53-11.52L169.53-11.52Q167.25-11.40 167.25-8.40L167.25-8.40L167.25-2.76Q167.13 0 164.01 0.12L164.01 0.12Q160.89 0 160.89-2.76L160.89-2.76L160.89-13.44Q160.77-16.44 163.89-16.44L163.89-16.44Q166.41-16.44 166.77-13.44L166.77-13.44Q168.33-16.32 172.05-16.44L172.05-16.44Q178.05-16.32 178.17-10.32L178.17-10.32L178.17-2.76Q178.05 0 175.05 0.12L175.05 0.12Q171.93 0 171.93-2.76ZM192.33-2.76L192.33-2.76L192.33-8.76Q192.21-11.40 189.93-11.52L189.93-11.52Q187.65-11.40 187.65-8.40L187.65-8.40L187.65-2.76Q187.53 0 184.41 0.12L184.41 0.12Q181.29 0 181.29-2.76L181.29-2.76L181.29-13.44Q181.17-16.44 184.29-16.44L184.29-16.44Q186.81-16.44 187.17-13.44L187.17-13.44Q188.73-16.32 192.45-16.44L192.45-16.44Q198.45-16.32 198.57-10.32L198.57-10.32L198.57-2.76Q198.45 0 195.45 0.12L195.45 0.12Q192.33 0 192.33-2.76ZM216.56-6.60L216.56-6.60L207.56-6.60Q207.80-3.24 210.92-3.24L210.92-3.24Q212.00-3.24 213.92-4.32L213.92-4.32Q215.60-5.28 216.56-5.28L216.56-5.28Q218.24-5.04 218.48-3.12L218.48-3.12Q218.12 0 210.20 0.12L210.20 0.12Q201.32 0 201.21-8.04L201.21-8.04Q201.44-16.08 210.20-16.44L210.20-16.44Q218.36-16.08 219.44-9.24L219.44-9.24Q219.44-6.48 216.56-6.60ZM207.56-9.72L207.56-9.72L213.44-9.72Q213.32-12.60 210.56-12.72L210.56-12.72Q207.68-12.60 207.56-9.72ZM222.08-2.76L222.08-2.76L222.08-19.44Q222.08-22.32 225.20-22.56L225.20-22.56Q228.32-22.44 228.44-19.44L228.44-19.44L228.44-2.76Q228.32 0 225.20 0.12L225.20 0.12Q222.08 0 222.08-2.76Z" transform="translate(-1.3197704747000523, 22.676056338028168)"/>
        </g>
      </g>
      <g fill-rule="" hollow-target="custom" class="tp-slogan" fill="#444" transform="translate(0,31.360000610351562)">
        <g mask="url(#3bf4f85b-1a12-41ab-a2a9-7aeb7f890460)">
          <g>
            <rect stroke-width="2" class="i-icon-bg" x="0" y="0" width="228.86713736397877" height="14.969999313354492" fill-opacity="1"/>
          </g>
          <g transform="translate(10.428571428571429,2)">
            <g fill="#fff">
              <path d="M7.45-9.70L7.45-9.70Q8.39-9.56 8.67-9.33L8.67-9.33Q8.67-9.28 8.58-9.14L8.58-9.14Q8.16-8.72 7.69-7.92L7.69-7.92L9.19-7.92Q10.45-7.92 11.48-8.02L11.48-8.02L11.48-6.89Q10.97-6.98 9.19-6.98L9.19-6.98L2.63-6.98Q1.59-6.98 0.52-6.89L0.52-6.89L0.52-8.02Q1.83-7.92 2.58-7.92L2.58-7.92L4.17-7.92Q3.84-8.72 3.38-9.28L3.38-9.28L4.27-9.61Q4.73-9.05 5.20-8.30L5.20-8.30L4.31-7.92L6.70-7.92Q7.17-8.53 7.45-9.70ZM9.14-6.38L9.14-6.38Q10.36-6.38 10.41-6.23L10.41-6.23Q10.41-6.14 10.31-6L10.31-6Q10.17-5.72 10.17-5.39L10.17-5.39L10.17 0.19Q10.22 1.13 8.06 1.17L8.06 1.17Q8.06 0.61 7.64 0.05L7.64 0.05Q9.09 0.23 9.19-0.42L9.19-0.42L9.19-5.34Q9.19-5.77 9.14-6.38ZM6.98-5.81L6.98-5.81Q8.16-5.81 8.20-5.67L8.20-5.67Q8.20-5.58 8.16-5.39L8.16-5.39Q8.06-5.16 8.06-4.97L8.06-4.97L8.06-2.58Q8.06-1.45 8.11-0.94L8.11-0.94L6.98-0.94Q6.98-1.08 6.98-1.50L6.98-1.50Q7.03-2.20 7.03-2.63L7.03-2.63L7.03-5.11Q7.03-5.81 6.98-5.81ZM5.02-5.44L2.63-5.44L2.63-4.22L5.02-4.22L5.02-5.44ZM5.02-2.25L5.02-3.52L2.63-3.52L2.63-2.25L5.02-2.25ZM1.64-6.28L1.64-6.28Q2.30-6.19 2.72-6.23L2.72-6.23L4.92-6.23Q5.30-6.19 6-6.28L6-6.28Q5.86-5.86 5.91-5.58L5.91-5.58L5.91 0.05Q5.95 0.98 4.08 1.03L4.08 1.03Q4.08 0.38 3.61-0.05L3.61-0.05Q4.92 0.14 5.02-0.19L5.02-0.19L5.02-1.55L2.63-1.55L2.63-0.38Q2.63 0.42 2.77 0.98L2.77 0.98L1.59 0.98Q1.73 0.05 1.73-0.33L1.73-0.33L1.73-5.58Q1.73-5.86 1.64-6.28ZM40.22-9.47L40.22-9.47Q41.29-9.47 41.29-9.33L41.29-9.33Q41.29-9.28 41.29-9.19L41.29-9.19Q41.20-9 41.20-8.86L41.20-8.86L41.20-7.08L42.56-7.08L42.56-8.30Q42.56-8.77 42.51-8.91L42.51-8.91Q42.61-8.91 42.84-8.86L42.84-8.86Q43.64-8.86 43.59-8.72L43.59-8.72Q43.59-8.67 43.54-8.58L43.54-8.58Q43.45-8.39 43.45-7.97L43.45-7.97L43.45-7.41Q43.45-6.52 43.54-6.23L43.54-6.23Q42.56-6.33 41.48-6.33L41.48-6.33L39.79-6.33Q38.76-6.33 38.11-6.23L38.11-6.23Q38.20-6.75 38.20-7.59L38.20-7.59Q38.20-8.67 38.11-8.95L38.11-8.95Q39.14-8.95 39.19-8.81L39.19-8.81Q39.19-8.77 39.14-8.72L39.14-8.72Q39.09-8.53 39.09-8.34L39.09-8.34L39.09-7.08L40.31-7.08L40.31-8.67Q40.31-9.33 40.22-9.47ZM34.87-9L35.86-9.23Q36.09-8.81 36.51-7.55L36.51-7.55L35.44-7.27Q35.29-8.02 34.87-9L34.87-9ZM33.42-6.23L33.42-7.08Q33.51-7.08 33.89-7.08L33.89-7.08Q34.45-7.03 34.83-7.03L34.83-7.03L36.14-7.03Q37.17-7.08 37.69-7.13L37.69-7.13L37.69-6.23Q37.40-6.28 36.14-6.28L36.14-6.28L34.78-6.28Q33.79-6.28 33.42-6.23L33.42-6.23ZM36.33-5.77L36.33-5.77Q37.45-5.58 37.40-5.48L37.40-5.48Q37.40-5.44 37.36-5.34L37.36-5.34Q37.17-5.11 37.08-4.78L37.08-4.78Q36.70-2.95 36.33-1.59L36.33-1.59L37.45-1.83L37.40-1.03Q36.47-0.80 35.34-0.47L35.34-0.47Q33.98-0.05 33.65 0L33.65 0Q33.47-0.56 33.37-1.08L33.37-1.08L35.53-1.41Q36.14-3.89 36.33-5.77ZM34.12-5.44L35.01-5.53Q35.29-4.17 35.44-2.39L35.44-2.39L34.50-2.30Q34.36-4.03 34.12-5.44L34.12-5.44ZM44.25-5.53L44.25-5.53L44.25-4.64Q43.45-4.73 42.33-4.73L42.33-4.73L41.11-4.73Q41.01-4.36 40.78-3.66L40.78-3.66L42.19-3.66Q43.12-3.66 43.83-3.66L43.83-3.66Q43.73-2.91 43.73-2.20L43.73-2.20L43.73 0.14Q43.92 0.80 42.28 0.94L42.28 0.94Q42.23 0.33 41.95-0.05L41.95-0.05Q42.98 0.05 42.94-0.42L42.94-0.42L42.94-2.91L41.86-2.91L41.86-1.03Q41.86-0.56 41.90-0.14L41.90-0.14L41.06-0.14Q41.15-0.42 41.15-1.03L41.15-1.03L41.15-2.91L40.26-2.91L40.26-1.13Q40.26-0.14 40.31-0.09L40.31-0.09L39.47-0.09Q39.56-0.23 39.56-1.17L39.56-1.17L39.56-2.91L38.72-2.91L38.72-0.33Q38.72 0.70 38.76 0.75L38.76 0.75L37.83 0.75Q37.92 0.47 37.92-0.33L37.92-0.33L37.92-2.25Q37.92-3 37.83-3.70L37.83-3.70Q38.01-3.66 39.94-3.66L39.94-3.66Q40.03-3.84 40.12-4.50L40.12-4.50Q40.17-4.69 40.17-4.73L40.17-4.73L39.28-4.73Q38.90-4.73 38.29-4.69L38.29-4.69Q37.92-4.69 37.73-4.69L37.73-4.69L37.73-5.53Q38.34-5.48 39.33-5.48L39.33-5.48L42.33-5.48Q43.87-5.48 44.25-5.53ZM72.75-9.70L72.75-9.70Q74.06-9.70 74.15-9.56L74.15-9.56Q74.15-9.52 74.10-9.42L74.10-9.42Q74.01-9.23 73.96-9.09L73.96-9.09Q73.82-7.59 73.82-6.84L73.82-6.84Q76.03-6.89 76.68-7.08L76.68-7.08Q76.64-6.52 76.59-5.39L76.59-5.39Q76.26-0.05 75.98 0.14L75.98 0.14Q75.70 0.84 73.78 1.03L73.78 1.03Q73.73 0.33 73.35-0.23L73.35-0.23Q74.62 0 75.04-0.47L75.04-0.47Q75.32-0.75 75.51-5.95L75.51-5.95L73.82-5.91Q73.96-0.70 70.50 1.27L70.50 1.27Q69.98 0.75 69.37 0.47L69.37 0.47Q72.89-0.70 72.79-5.86L72.79-5.86Q71.76-5.86 71.15-5.72L71.15-5.72Q71.06-5.72 71.06-5.72L71.06-5.72L71.06-6.89Q71.20-6.80 72.79-6.80L72.79-6.80Q72.79-8.86 72.75-9.70ZM70.87-7.97L70.87-7.97L70.87-6.89Q70.87-6.89 70.82-6.89L70.82-6.89Q70.26-6.98 69.37-6.98L69.37-6.98L69.32-6.98L69.32-2.25L71.15-2.86L71.20-1.73L66.65-0.28L66.28-1.45L68.34-2.02L68.34-6.98L68.20-6.98Q67.59-6.98 66.93-6.89L66.93-6.89Q66.75-6.89 66.70-6.89L66.70-6.89L66.70-7.97Q66.70-7.97 66.79-7.97L66.79-7.97Q67.40-7.88 68.25-7.88L68.25-7.88L69.37-7.88Q70.21-7.88 70.78-7.97L70.78-7.97Q70.87-7.97 70.87-7.97ZM105.23-9.66L105.23-9.66Q106.45-9.56 106.45-9.38L106.45-9.38Q106.45-9.28 106.35-9.23L106.35-9.23Q106.21-9.05 106.21-8.72L106.21-8.72L106.21-7.45Q107.15-7.88 108.46-8.86L108.46-8.86Q109.31-8.11 109.26-7.92L109.26-7.92Q109.21-7.88 108.93-7.83L108.93-7.83Q108.60-7.73 108.32-7.64L108.32-7.64Q107.95-7.50 107.43-7.27L107.43-7.27Q106.77-6.98 106.21-6.75L106.21-6.75L106.21-5.91Q106.21-5.77 106.96-5.72L106.96-5.72Q107.95-5.67 108.27-5.81L108.27-5.81Q108.60-5.95 108.60-6.98L108.60-6.98Q109.21-6.52 109.73-6.33L109.73-6.33Q109.40-5.02 108.65-4.88L108.65-4.88Q107.52-4.73 106.35-4.88L106.35-4.88Q105.32-5.02 105.32-5.58L105.32-5.58Q105.37-8.30 105.23-9.52L105.23-9.52Q105.23-9.61 105.23-9.66ZM101.43-9.56L101.43-9.56Q102.56-9.19 102.56-9.05L102.56-9.05Q102.51-8.95 102.32-8.77L102.32-8.77Q102.13-8.63 102.04-8.53L102.04-8.53Q101.95-8.39 101.52-7.88L101.52-7.88Q100.82-6.89 100.59-6.66L100.59-6.66L103.35-6.84Q103.02-7.36 102.46-7.88L102.46-7.88L103.31-8.39Q104.43-7.17 104.95-6.19L104.95-6.19L103.92-5.63Q103.82-5.91 103.68-6.19L103.68-6.19Q101.43-6.05 99.65-5.63L99.65-5.63L99.27-6.70Q99.79-6.80 100.17-7.31L100.17-7.31Q100.87-8.20 101.43-9.56ZM105.23-4.55L105.23-4.55Q105.37-4.55 105.60-4.50L105.60-4.50Q106.45-4.41 106.40-4.31L106.40-4.31Q106.40-4.27 106.31-4.13L106.31-4.13Q106.21-3.94 106.21-3.80L106.21-3.80L106.21-2.34Q107.90-3.19 108.51-3.75L108.51-3.75Q108.70-3.52 108.93-3.19L108.93-3.19Q109.31-2.81 109.26-2.77L109.26-2.77Q109.26-2.72 109.07-2.67L109.07-2.67Q108.79-2.63 108.56-2.53L108.56-2.53Q108.51-2.48 106.40-1.73L106.40-1.73Q106.26-1.64 106.21-1.64L106.21-1.64L106.21-0.42Q106.26 0 107.01-0.09L107.01-0.09Q108.27-0.19 108.42-0.28L108.42-0.28Q108.79-0.52 108.74-1.45L108.74-1.45Q109.31-1.03 109.82-0.84L109.82-0.84Q109.40 0.47 108.88 0.61L108.88 0.61Q108.65 0.70 107.71 0.75L107.71 0.75Q106.82 0.75 106.26 0.70L106.26 0.70Q105.37 0.61 105.32 0L105.32 0L105.32-3.38Q105.32-4.13 105.23-4.55ZM103.35-3.38L103.35-4.41L100.82-4.41L100.82-3.38L103.35-3.38ZM103.35-1.64L103.35-2.72L100.82-2.72L100.82-1.64L103.35-1.64ZM104.29-5.25L104.29-5.25Q104.20-4.73 104.20-4.41L104.20-4.41L104.20 0.28Q104.15 0.89 102.46 1.13L102.46 1.13Q102.46 0.42 102.04-0.05L102.04-0.05Q103.12 0.14 103.35-0.09L103.35-0.09L103.35-0.98L100.82-0.98L100.82-0.19Q100.77 0.33 100.92 1.08L100.92 1.08L99.79 1.08Q99.88 0.19 99.88-0.19L99.88-0.19L99.88-4.41Q99.88-4.88 99.79-5.25L99.79-5.25Q100.54-5.16 100.96-5.16L100.96-5.16L102.88-5.16Q103.31-5.16 104.29-5.25ZM138.69-9.61L138.69-9.61Q139.87-9.47 139.96-9.28L139.96-9.28Q139.96-9.19 139.87-9.09L139.87-9.09Q139.77-9 139.77-8.95L139.77-8.95Q140.62-7.13 143.10-6.05L143.10-6.05Q142.63-5.72 142.40-5.06L142.40-5.06Q139.77-6.47 139.35-8.53L139.35-8.53Q138.65-6.84 136.54-4.78L136.54-4.78Q136.21-5.16 135.69-5.44L135.69-5.44Q137.94-6.89 138.69-9.61ZM140.71-4.27L140.71-4.27Q141.88-4.08 141.98-3.84L141.98-3.84Q141.98-3.80 141.83-3.66L141.83-3.66Q141.69-3.47 141.65-3.33L141.65-3.33Q141.60-3.23 141.55-3.05L141.55-3.05Q140.99-1.13 140.57-0.05L140.57-0.05L140.85-0.05Q141.88-0.05 142.35-0.09L142.35-0.09L142.35 0.70Q141.83 0.66 140.85 0.66L140.85 0.66L138.18 0.66Q136.87 0.66 136.40 0.70L136.40 0.70L136.40-0.14Q137.24-0.05 138.18-0.05L138.18-0.05L139.63-0.05Q140.43-1.88 140.71-4.27ZM138.41-4.08L139.40-4.22Q139.73-2.53 139.77-1.41L139.77-1.41L138.79-1.27Q138.74-2.81 138.41-4.08L138.41-4.08ZM136.73-3.80L137.57-3.98Q138.04-2.81 138.32-0.94L138.32-0.94L137.33-0.75Q137.19-2.77 136.73-3.80L136.73-3.80ZM134.76-2.11L134.76-2.11L134.76-1.22Q134.48-1.17 133.68-0.98L133.68-0.98Q132.46-0.70 132.18-0.66L132.18-0.66L131.99-1.73Q132.83-1.78 134.76-2.11ZM135.51-3.89L135.51-3.89Q135.79-3.89 136.30-3.94L136.30-3.94Q136.30-3.75 136.26-3.33L136.26-3.33Q136.16 0.09 135.83 0.42L135.83 0.42Q135.51 0.94 134.15 1.13L134.15 1.13Q133.96 1.17 133.87 1.17L133.87 1.17Q133.77 0.56 133.40 0.05L133.40 0.05Q134.66 0.23 134.99-0.14L134.99-0.14Q135.32-0.52 135.37-3.14L135.37-3.14Q134.33-3.05 132.51-2.91L132.51-2.91Q132.60-3.66 132.65-4.92L132.65-4.92Q132.69-6.38 132.65-6.98L132.65-6.98Q133.77-6.98 133.82-6.80L133.82-6.80Q133.82-6.75 133.77-6.61L133.77-6.61Q133.68-6.38 133.63-6.14L133.63-6.14Q133.63-6.05 133.58-5.81L133.58-5.81Q133.44-4.17 133.44-3.75L133.44-3.75Q133.54-3.75 133.96-3.75L133.96-3.75Q134.48-3.80 134.66-3.80L134.66-3.80Q134.85-6.56 134.94-7.78L134.94-7.78Q132.79-7.73 132.04-7.59L132.04-7.59L132.04-8.72Q132.65-8.67 133.35-8.63L133.35-8.63Q133.96-8.63 135.98-8.67L135.98-8.67Q135.69-6.42 135.51-3.89ZM137.57-4.88L137.57-5.72Q137.66-5.72 138.04-5.72L138.04-5.72Q138.69-5.67 138.93-5.67L138.93-5.67L139.54-5.67Q139.63-5.67 140.10-5.67L140.10-5.67Q140.90-5.72 141.13-5.72L141.13-5.72L141.13-4.83Q140.76-4.92 139.58-4.92L139.58-4.92L138.98-4.92Q137.99-4.92 137.57-4.88L137.57-4.88ZM165.60-8.95L166.58-9.47Q167.19-8.77 167.80-7.50L167.80-7.50L166.82-6.98Q166.21-8.30 165.60-8.95L165.60-8.95ZM168.60-7.73L168.60-8.86Q168.65-8.86 168.79-8.86L168.79-8.86Q169.58-8.77 170.15-8.77L170.15-8.77L173.71-8.77Q174.22-8.77 174.93-8.86L174.93-8.86Q175.07-8.86 175.11-8.86L175.11-8.86L175.11-7.73Q175.07-7.73 174.97-7.73L174.97-7.73Q174.32-7.83 173.75-7.83L173.75-7.83L172.40-7.83L172.40-5.06L173.10-5.06Q174.13-5.06 174.83-5.16L174.83-5.16Q174.93-5.16 174.93-5.16L174.93-5.16L174.93-4.13Q174.93-4.13 174.79-4.13L174.79-4.13Q174.04-4.22 173.10-4.22L173.10-4.22L172.40-4.22L172.40-0.52L173.85-0.52Q174.74-0.52 175.44-0.61L175.44-0.61Q175.54-0.61 175.54-0.61L175.54-0.61L175.54 0.42Q175.49 0.42 175.35 0.42L175.35 0.42Q174.74 0.33 173.90 0.33L173.90 0.33L169.25 0.33Q168.50 0.28 167.90 0.42L167.90 0.42Q167.80 0.42 167.80 0.42L167.80 0.42L167.80-0.56Q167.85-0.56 167.94-0.56L167.94-0.56Q168.55-0.47 169.16-0.47L169.16-0.47L169.16-4.31Q169.16-5.44 169.11-5.77L169.11-5.77Q170.19-5.77 170.33-5.63L170.33-5.63Q170.33-5.58 170.29-5.53L170.29-5.53Q170.05-5.16 170.05-4.17L170.05-4.17L170.05-0.52L171.41-0.52L171.41-7.83L170.19-7.83Q169.40-7.83 168.69-7.73L168.69-7.73Q168.60-7.73 168.60-7.73L168.60-7.73ZM164.75-5.11L164.75-6.19Q164.80-6.19 164.90-6.19L164.90-6.19Q165.46-6.09 165.97-6.09L165.97-6.09Q166.68-6.09 167.19-6.19L167.19-6.19Q167.24-6.09 167.05-1.22L167.05-1.22Q167.43-1.69 168.08-2.67L168.08-2.67L168.65-1.83Q167.19-0.23 166.68 0.38L166.68 0.38L165.93-0.28Q166.07-0.61 166.16-1.31L166.16-1.31Q166.16-2.53 166.25-5.20L166.25-5.20L166.02-5.20Q165.46-5.20 164.90-5.11L164.90-5.11Q164.80-5.11 164.75-5.11L164.75-5.11ZM206.56-8.67L204.55-8.67L204.55-7.41L206.56-7.41L206.56-8.67ZM204.36-1.97L204.36-0.52L206.52-0.52L206.52-1.97L204.36-1.97ZM201.60-0.52L201.60-1.92L199.77-1.92L199.77-0.52L201.60-0.52ZM206.28-5.95L206.28-5.95L205.67-5.58L206.24-5.58Q207.46-5.58 208.16-5.67L208.16-5.67L208.16-4.73Q207.17-4.83 206.19-4.83L206.19-4.83L203.80-4.83Q205.30-3.70 208.53-3.89L208.53-3.89Q208.21-3.47 208.11-2.77L208.11-2.77Q203.94-3.14 202.96-4.78L202.96-4.78Q202.11-3.19 198.08-2.67L198.08-2.67Q197.94-3.23 197.52-3.70L197.52-3.70Q200.89-3.66 202.11-4.83L202.11-4.83L199.91-4.83Q198.78-4.83 198.03-4.73L198.03-4.73L198.03-5.67Q198.88-5.58 199.91-5.58L199.91-5.58L202.35-5.58Q202.44-5.81 202.44-6.47L202.44-6.47Q203.61-6.38 203.61-6.33L203.61-6.33Q203.61-6.28 203.56-6.19L203.56-6.19Q203.38-5.91 203.33-5.58L203.33-5.58L205.35-5.58Q205.21-5.77 204.69-6.19L204.69-6.19L205.44-6.61Q205.77-6.38 206.28-5.95ZM201.64-8.67L199.67-8.67L199.67-7.41L201.64-7.41L201.64-8.67ZM202.58-2.77L202.58-2.77Q202.49-2.48 202.49-1.88L202.49-1.88L202.49 0.14Q202.49 0.66 202.58 0.89L202.58 0.89L201.50 0.89Q201.60 0.61 201.60 0.19L201.60 0.19L199.72 0.19Q199.72 0.61 199.81 0.98L199.81 0.98L198.83 0.98Q198.83 0.98 198.92 0.19L198.92 0.19L198.92-1.92Q198.92-2.53 198.83-2.77L198.83-2.77Q199.21-2.67 199.72-2.67L199.72-2.67L201.60-2.67Q201.83-2.67 202.58-2.77ZM207.41-2.81L207.41-2.81Q207.41-2.81 207.36-1.97L207.36-1.97L207.36 0.19Q207.36 0.56 207.46 0.84L207.46 0.84L206.38 0.84Q206.47 0.56 206.47 0.19L206.47 0.19L204.41 0.19Q204.41 0.61 204.50 0.89L204.50 0.89L203.42 0.89Q203.42 0.94 203.52 0.23L203.52 0.23L203.52-1.88Q203.52-2.16 203.42-2.81L203.42-2.81Q203.99-2.72 204.41-2.72L204.41-2.72L206.38-2.72Q206.85-2.72 207.41-2.81ZM207.55-9.52L207.55-9.52Q207.46-9.05 207.46-8.72L207.46-8.72L207.46-7.36Q207.46-6.89 207.55-6.56L207.55-6.56Q206.99-6.66 206.56-6.66L206.56-6.66L204.46-6.66Q204.36-6.66 204.03-6.61L204.03-6.61Q203.71-6.61 203.56-6.56L203.56-6.56Q203.66-7.03 203.66-7.36L203.66-7.36L203.66-8.67Q203.66-9.19 203.56-9.52L203.56-9.52Q204.08-9.42 204.50-9.42L204.50-9.42L206.56-9.42Q207.08-9.42 207.55-9.52ZM199.63-9.42L199.63-9.42L201.60-9.42Q202.16-9.42 202.58-9.52L202.58-9.52Q202.49-9.14 202.49-8.63L202.49-8.63L202.49-7.41Q202.49-6.94 202.58-6.56L202.58-6.56Q202.11-6.66 201.64-6.66L201.64-6.66L199.67-6.66Q199.06-6.66 198.74-6.56L198.74-6.56Q198.83-7.03 198.83-7.36L198.83-7.36L198.83-8.63Q198.83-9.09 198.74-9.56L198.74-9.56Q199.06-9.42 199.63-9.42Z" transform="translate(-0.515625, 9.703125)"/>
            </g>
          </g>
        </g>
      </g>
    </g>
  </g>
</svg>