<?xml version="1.0" encoding="utf-8"?>
<svg data-v-1e121de1="" version="1.0" viewBox="0 0 234.1 60" preserveAspectRatio="xMidYMid meet" color-interpolation-filters="sRGB" style="margin: auto;" xmlns="http://www.w3.org/2000/svg">
  <g data-v-1e121de1="" fill="#c62a10">
    <g transform="translate(0,0)">
      <rect fill="#c62a10" fill-opacity="0" stroke-width="2" x="0" y="0" width="60" height="60"/>
      <svg filter="url(#colors3499376523)" x="0" y="0" width="60" height="60" filtersec="colorsf3048682915">
        <svg xmlns="http://www.w3.org/2000/svg" viewBox="0 0 966 966">
          <path fill-rule="evenodd" clip-rule="evenodd" fill="#C62A10" d="M30.55 631.11C-23.92 464.38 18.7 289.28 127.3 166.93c-44.24 102.7-52.71 221.3-15.26 335.95 81.63 249.9 350.4 386.31 600.3 304.68 83.17-27.17 153.76-75.09 207.93-136.12C868.08 792.6 766.1 891.61 630.85 935.79c-249.91 81.63-518.67-54.78-600.3-304.68z"/>
          <path fill-rule="evenodd" clip-rule="evenodd" fill="#C62A10" d="M459.17 765.71C324.56 724.26 229.4 615.24 199.4 487.34c46.9 76.57 120.8 137.03 213.36 165.53C614.52 715 828.44 601.81 890.57 400.05c20.68-67.15 21.91-135.64 6.94-199.44 55.33 90.33 73.09 203.08 39.47 312.27-62.13 201.76-276.05 314.95-477.81 252.83z"/>
          <path fill-rule="evenodd" clip-rule="evenodd" fill="#C62A10" d="M749.25 546.62c-86.02 76.93-202.77 97.6-305.21 64.55 73.57-.53 147.25-26.81 206.4-79.71 128.93-115.3 139.98-313.29 24.68-442.22C636.74 46.33 589.2 16.49 538.1.01c86.79-.62 173.42 34.61 235.82 104.39 115.31 128.93 104.26 326.92-24.67 442.22z"/>
          <path fill-rule="evenodd" clip-rule="evenodd" fill="#C62A10" d="M693.64 271.32c10.73 103.77-36.03 200.22-114.53 257.71 38.61-54.15 58.43-122.04 51.05-193.4-16.08-155.52-155.2-268.57-310.74-252.49-51.77 5.35-98.82 24.35-137.98 53.03C227 72.29 298.72 27.53 382.9 18.83c155.53-16.09 294.66 96.96 310.74 252.49z"/>
          <path fill-rule="evenodd" clip-rule="evenodd" fill="#C62A10" d="M427.35 139.79c72.21 34.3 116.73 103.32 123.11 177.6-20.08-46.84-56.63-86.85-106.28-110.44-108.23-51.41-237.64-5.35-289.05 102.87-17.11 36.02-23.41 74.39-20.23 111.45-23.68-55.26-24.42-120.04 3.4-178.61 51.42-108.22 180.83-154.28 289.05-102.87z"/>
        </svg>
      </svg>
      <defs>
        <filter id="colors3499376523">
          <feColorMatrix type="matrix" values="0 0 0 0 0.7734375  0 0 0 0 0.1640625  0 0 0 0 0.0625  0 0 0 1 0"/>
        </filter>
      </defs>
    </g>
    <g transform="translate(67,9.745063781738281)" mask="url(#cf5bf69a-229d-467e-b93e-899511be014d)">
      <g fill-rule="" transform="translate(0,0)">
        <g>
          <path d="M13.05-1.00Q14.93-2.22 15.92-4.39Q16.91-6.55 16.91-9.25L16.91-9.25Q16.91-11.79 16.00-13.89Q15.09-15.99 13.32-17.24Q11.55-18.50 9.09-18.50L9.09-18.50Q6.47-18.50 4.66-17.24Q2.85-15.99 1.96-13.85Q1.06-11.71 1.06-9.04L1.06-9.04Q1.06-6.55 2.03-4.48Q3.01-2.40 4.82-1.20Q6.63 0 8.98 0L8.98 0Q9.86 0 11.18-0.21L11.18-0.21L13.29 2.85L15.70 2.85L13.05-1.00ZM3.65-8.93Q3.65-12.16 4.88-14.28Q6.10-16.41 9.09-16.41L9.09-16.41Q10.94-16.41 12.21-15.41Q13.48-14.40 13.97-12.78Q14.46-11.15 14.46-9.25L14.46-9.25Q14.46-7.29 13.95-5.64Q13.45-3.99 12.17-2.99Q10.89-1.98 8.98-1.98L8.98-1.98Q7.19-1.98 5.92-2.93Q4.65-3.88 4.15-5.47Q3.65-7.06 3.65-8.93L3.65-8.93ZM25.45 0Q25.74 0 25.82-0.26L25.82-0.26L30.15-15.96L34.43 0L36.47 0Q36.76 0 36.84-0.29L36.84-0.29L41.70-18.50L39.56-18.50L35.91-3.14L31.84-18.50L28.73-18.50L24.79-3.14L21.27-18.50L18.58-18.50L23.33 0L25.45 0ZM54.04-4.94Q53.17-3.38 52.13-2.85Q51.08-2.33 50.00-2.33L50.00-2.33Q48.89-2.33 47.91-2.85Q46.93-3.38 46.33-4.39Q45.72-5.39 45.72-6.74L45.72-6.74L56.39-6.74Q56.42-7.03 56.42-7.40L56.42-7.40Q56.42-9.75 55.50-11.43Q54.57-13.11 53.08-13.95Q51.58-14.80 49.89-14.80L49.89-14.80Q48.18-14.80 46.64-13.93Q45.11-13.05 44.16-11.35Q43.21-9.65 43.21-7.27L43.21-7.27Q43.21-4.99 44.18-3.34Q45.16-1.69 46.75-0.85Q48.33 0 50.10 0L50.10 0Q52.14 0 53.82-1.14Q55.50-2.27 56.21-4.41L56.21-4.41L54.04-4.94ZM45.85-8.72Q45.93-9.99 46.52-10.91Q47.12-11.84 48.03-12.33Q48.94-12.82 49.92-12.82L49.92-12.82Q51.43-12.82 52.55-11.76Q53.67-10.70 53.83-8.72L53.83-8.72L45.85-8.72ZM62.13-7.48Q62.13-8.80 62.62-10.03Q63.11-11.26 63.98-12.02Q64.85-12.79 65.96-12.79L65.96-12.79Q67.94-12.79 68.84-11.15Q69.74-9.51 69.74-7.37L69.74-7.37Q69.74-6.05 69.34-4.82Q68.95-3.59 68.05-2.77Q67.15-1.96 65.72-1.96L65.72-1.96Q63.63-1.96 62.88-3.70Q62.13-5.44 62.13-7.48L62.13-7.48ZM61.89-2.06Q63.37 0 65.93 0L65.93 0Q67.99 0 69.45-1.08L69.45-1.08Q70.88-2.17 71.56-3.91L71.56-3.91Q72.25-5.66 72.25-7.58L72.25-7.58Q72.25-9.46 71.56-11.13L71.56-11.13Q70.90-12.71 69.47-13.74L69.47-13.74Q68.07-14.75 66.04-14.75L66.04-14.75Q63.61-14.75 62.05-12.84L62.05-12.84L62.05-19.79L59.59-19.79L59.59 0L61.49 0Q61.65 0 61.77-0.12Q61.89-0.24 61.89-0.40L61.89-0.40L61.89-2.06ZM87.84-5.79Q87.23-4.15 85.71-3.00Q84.19-1.85 82.42-1.85L82.42-1.85Q80.42-1.85 79.11-2.93Q77.80-4.02 77.35-5.67Q76.90-7.32 76.90-9.14L76.90-9.14Q76.90-11.10 77.44-12.72Q77.98-14.35 79.28-15.33Q80.57-16.30 82.34-16.30L82.34-16.30Q84.17-16.30 85.54-15.35Q86.92-14.40 87.52-13.08L87.52-13.08L89.58-13.61Q88.45-16.04 86.72-17.18Q84.99-18.31 82.11-18.31L82.11-18.31Q79.73-18.31 77.93-17.07Q76.13-15.83 75.16-13.70Q74.18-11.57 74.18-8.98L74.18-8.98Q74.18-6.42 75.13-4.35Q76.08-2.27 77.98-1.04Q79.89 0.18 82.61 0.18L82.61 0.18Q85.33 0.18 87.21-1.23Q89.08-2.64 89.88-5.26L89.88-5.26L87.84-5.79ZM93.79 0Q94.00 0 94.09-0.09Q94.18-0.18 94.18-0.40L94.18-0.40L94.18-8.32Q94.18-9.83 94.67-10.86Q95.16-11.89 95.95-12.39Q96.75-12.90 97.67-12.90L97.67-12.90Q98.54-12.90 99.34-12.43Q100.13-11.97 100.62-11.11Q101.11-10.25 101.11-9.06L101.11-9.06L101.11 0L103.17 0Q103.38 0 103.47-0.09Q103.56-0.18 103.56-0.40L103.56-0.40L103.56-9.06Q103.56-10.91 102.89-12.22Q102.22-13.53 101.11-14.19Q100.00-14.85 98.68-14.85L98.68-14.85Q97.46-14.85 96.28-14.30Q95.11-13.74 94.18-12.66L94.18-12.66L94.18-19.79L91.73-19.79L91.73 0L93.79 0ZM115.75-2.09Q115.83-1.08 116.17-0.32L116.17-0.32L118.63-0.32Q118.10-1.24 117.89-2.75L117.89-2.75Q117.70-4.02 117.70-5.95L117.70-5.95L117.70-7.37Q117.70-8.56 117.65-9.46L117.65-9.46Q117.57-10.99 117.07-12.21L117.07-12.21Q116.59-13.35 115.46-14.06L115.46-14.06Q114.06-14.90 111.78-14.90L111.78-14.90Q109.80-14.90 108.35-14.06L108.35-14.06Q106.74-13.11 106.18-10.91L106.18-10.91L108.61-10.91Q109.03-12.05 109.93-12.47L109.93-12.47Q110.86-12.87 112.23-12.87L112.23-12.87Q113.50-12.87 114.50-12.18L114.50-12.18Q115.54-11.47 115.54-9.96L115.54-9.96L115.54-9.33Q114.64-9.04 112.52-8.72L112.52-8.72Q110.54-8.43 109.11-8.03L109.11-8.03Q107.82-7.69 106.87-6.74L106.87-6.74Q105.94-5.81 105.94-4.07L105.94-4.07Q105.94-2.03 107.34-1.00L107.34-1.00Q108.74 0.03 110.67 0.03L110.67 0.03Q111.94 0.03 113.24-0.45L113.24-0.45Q114.37-0.87 115.75-2.09L115.75-2.09ZM115.54-6.58Q115.54-6.00 115.48-5.21L115.48-5.21Q115.40-4.62 115.17-4.15L115.17-4.15Q114.64-3.07 113.53-2.48L113.53-2.48Q112.36-1.88 111.18-1.88L111.18-1.88Q109.99-1.88 109.25-2.46L109.25-2.46Q108.45-3.07 108.45-4.12L108.45-4.12Q108.45-5.05 109.11-5.63L109.11-5.63Q109.75-6.18 110.67-6.42L110.67-6.42Q111.31-6.58 113.05-6.87L113.05-6.87L114.45-7.11Q115.09-7.21 115.54-7.43L115.54-7.43L115.54-6.58ZM123.04 0Q123.25 0 123.34-0.09Q123.44-0.18 123.44-0.40L123.44-0.40L123.44-7.88Q123.44-9.46 123.95-10.57Q124.47-11.68 125.29-12.24Q126.11-12.79 127.00-12.79L127.00-12.79Q127.85-12.79 128.59-12.31Q129.33-11.84 129.78-10.93Q130.23-10.02 130.23-8.75L130.23-8.75L130.23 0L132.26 0Q132.47 0 132.57-0.09Q132.66-0.18 132.66-0.40L132.66-0.40L132.66-8.85Q132.66-10.83 131.99-12.20Q131.31-13.56 130.19-14.23Q129.07-14.90 127.77-14.90L127.77-14.90Q126.45-14.90 125.23-14.24Q124.02-13.58 123.20-12.37L123.20-12.37L123.20-14.80L121.01-14.80L121.01 0L123.04 0ZM137.34 0Q137.55 0 137.64-0.09Q137.73-0.18 137.73-0.40L137.73-0.40L137.73-7.88Q137.73-9.46 138.25-10.57Q138.76-11.68 139.58-12.24Q140.40-12.79 141.30-12.79L141.30-12.79Q142.15-12.79 142.89-12.31Q143.63-11.84 144.08-10.93Q144.53-10.02 144.53-8.75L144.53-8.75L144.53 0L146.56 0Q146.77 0 146.86-0.09Q146.96-0.18 146.96-0.40L146.96-0.40L146.96-8.85Q146.96-10.83 146.28-12.20Q145.61-13.56 144.49-14.23Q143.36-14.90 142.07-14.90L142.07-14.90Q140.75-14.90 139.53-14.24Q138.31-13.58 137.50-12.37L137.50-12.37L137.50-14.80L135.30-14.80L135.30 0L137.34 0ZM160.17-4.94Q159.30-3.38 158.25-2.85Q157.21-2.33 156.13-2.33L156.13-2.33Q155.02-2.33 154.04-2.85Q153.06-3.38 152.45-4.39Q151.85-5.39 151.85-6.74L151.85-6.74L162.52-6.74Q162.55-7.03 162.55-7.40L162.55-7.40Q162.55-9.75 161.62-11.43Q160.70-13.11 159.20-13.95Q157.71-14.80 156.02-14.80L156.02-14.80Q154.30-14.80 152.77-13.93Q151.24-13.05 150.29-11.35Q149.33-9.65 149.33-7.27L149.33-7.27Q149.33-4.99 150.31-3.34Q151.29-1.69 152.88-0.85Q154.46 0 156.23 0L156.23 0Q158.27 0 159.94-1.14Q161.62-2.27 162.34-4.41L162.34-4.41L160.17-4.94ZM151.98-8.72Q152.06-9.99 152.65-10.91Q153.25-11.84 154.16-12.33Q155.07-12.82 156.05-12.82L156.05-12.82Q157.55-12.82 158.68-11.76Q159.80-10.70 159.96-8.72L159.96-8.72L151.98-8.72ZM167.75 0.13Q167.91 0.13 168.03 0.01Q168.15-0.11 168.15-0.26L168.15-0.26L168.15-19.69L165.72-19.69L165.72 0.13L167.75 0.13Z" transform="translate(-1.0570495880615578, 19.793253536452667)"/>
        </g>
      </g>
      <g fill-rule="" hollow-target="t-name" fill="#c62a10" transform="translate(54.10999870300293,29.64000129699707)">
        <g>
          <path d="M7.45-9.70L7.45-9.70Q8.39-9.56 8.67-9.33L8.67-9.33Q8.67-9.28 8.58-9.14L8.58-9.14Q8.16-8.72 7.69-7.92L7.69-7.92L9.19-7.92Q10.45-7.92 11.48-8.02L11.48-8.02L11.48-6.89Q10.97-6.98 9.19-6.98L9.19-6.98L2.63-6.98Q1.59-6.98 0.52-6.89L0.52-6.89L0.52-8.02Q1.83-7.92 2.58-7.92L2.58-7.92L4.17-7.92Q3.84-8.72 3.38-9.28L3.38-9.28L4.27-9.61Q4.73-9.05 5.20-8.30L5.20-8.30L4.31-7.92L6.70-7.92Q7.17-8.53 7.45-9.70ZM9.14-6.38L9.14-6.38Q10.36-6.38 10.41-6.23L10.41-6.23Q10.41-6.14 10.31-6L10.31-6Q10.17-5.72 10.17-5.39L10.17-5.39L10.17 0.19Q10.22 1.13 8.06 1.17L8.06 1.17Q8.06 0.61 7.64 0.05L7.64 0.05Q9.09 0.23 9.19-0.42L9.19-0.42L9.19-5.34Q9.19-5.77 9.14-6.38ZM6.98-5.81L6.98-5.81Q8.16-5.81 8.20-5.67L8.20-5.67Q8.20-5.58 8.16-5.39L8.16-5.39Q8.06-5.16 8.06-4.97L8.06-4.97L8.06-2.58Q8.06-1.45 8.11-0.94L8.11-0.94L6.98-0.94Q6.98-1.08 6.98-1.50L6.98-1.50Q7.03-2.20 7.03-2.63L7.03-2.63L7.03-5.11Q7.03-5.81 6.98-5.81ZM5.02-5.44L2.63-5.44L2.63-4.22L5.02-4.22L5.02-5.44ZM5.02-2.25L5.02-3.52L2.63-3.52L2.63-2.25L5.02-2.25ZM1.64-6.28L1.64-6.28Q2.30-6.19 2.72-6.23L2.72-6.23L4.92-6.23Q5.30-6.19 6-6.28L6-6.28Q5.86-5.86 5.91-5.58L5.91-5.58L5.91 0.05Q5.95 0.98 4.08 1.03L4.08 1.03Q4.08 0.38 3.61-0.05L3.61-0.05Q4.92 0.14 5.02-0.19L5.02-0.19L5.02-1.55L2.63-1.55L2.63-0.38Q2.63 0.42 2.77 0.98L2.77 0.98L1.59 0.98Q1.73 0.05 1.73-0.33L1.73-0.33L1.73-5.58Q1.73-5.86 1.64-6.28ZM19.36-9.47L19.36-9.47Q20.44-9.47 20.44-9.33L20.44-9.33Q20.44-9.28 20.44-9.19L20.44-9.19Q20.34-9 20.34-8.86L20.34-8.86L20.34-7.08L21.70-7.08L21.70-8.30Q21.70-8.77 21.66-8.91L21.66-8.91Q21.75-8.91 21.98-8.86L21.98-8.86Q22.78-8.86 22.73-8.72L22.73-8.72Q22.73-8.67 22.69-8.58L22.69-8.58Q22.59-8.39 22.59-7.97L22.59-7.97L22.59-7.41Q22.59-6.52 22.69-6.23L22.69-6.23Q21.70-6.33 20.63-6.33L20.63-6.33L18.94-6.33Q17.91-6.33 17.25-6.23L17.25-6.23Q17.34-6.75 17.34-7.59L17.34-7.59Q17.34-8.67 17.25-8.95L17.25-8.95Q18.28-8.95 18.33-8.81L18.33-8.81Q18.33-8.77 18.28-8.72L18.28-8.72Q18.23-8.53 18.23-8.34L18.23-8.34L18.23-7.08L19.45-7.08L19.45-8.67Q19.45-9.33 19.36-9.47ZM14.02-9L15-9.23Q15.23-8.81 15.66-7.55L15.66-7.55L14.58-7.27Q14.44-8.02 14.02-9L14.02-9ZM12.56-6.23L12.56-7.08Q12.66-7.08 13.03-7.08L13.03-7.08Q13.59-7.03 13.97-7.03L13.97-7.03L15.28-7.03Q16.31-7.08 16.83-7.13L16.83-7.13L16.83-6.23Q16.55-6.28 15.28-6.28L15.28-6.28L13.92-6.28Q12.94-6.28 12.56-6.23L12.56-6.23ZM15.47-5.77L15.47-5.77Q16.59-5.58 16.55-5.48L16.55-5.48Q16.55-5.44 16.50-5.34L16.50-5.34Q16.31-5.11 16.22-4.78L16.22-4.78Q15.84-2.95 15.47-1.59L15.47-1.59L16.59-1.83L16.55-1.03Q15.61-0.80 14.48-0.47L14.48-0.47Q13.13-0.05 12.80 0L12.80 0Q12.61-0.56 12.52-1.08L12.52-1.08L14.67-1.41Q15.28-3.89 15.47-5.77ZM13.27-5.44L14.16-5.53Q14.44-4.17 14.58-2.39L14.58-2.39L13.64-2.30Q13.50-4.03 13.27-5.44L13.27-5.44ZM23.39-5.53L23.39-5.53L23.39-4.64Q22.59-4.73 21.47-4.73L21.47-4.73L20.25-4.73Q20.16-4.36 19.92-3.66L19.92-3.66L21.33-3.66Q22.27-3.66 22.97-3.66L22.97-3.66Q22.88-2.91 22.88-2.20L22.88-2.20L22.88 0.14Q23.06 0.80 21.42 0.94L21.42 0.94Q21.38 0.33 21.09-0.05L21.09-0.05Q22.13 0.05 22.08-0.42L22.08-0.42L22.08-2.91L21-2.91L21-1.03Q21-0.56 21.05-0.14L21.05-0.14L20.20-0.14Q20.30-0.42 20.30-1.03L20.30-1.03L20.30-2.91L19.41-2.91L19.41-1.13Q19.41-0.14 19.45-0.09L19.45-0.09L18.61-0.09Q18.70-0.23 18.70-1.17L18.70-1.17L18.70-2.91L17.86-2.91L17.86-0.33Q17.86 0.70 17.91 0.75L17.91 0.75L16.97 0.75Q17.06 0.47 17.06-0.33L17.06-0.33L17.06-2.25Q17.06-3 16.97-3.70L16.97-3.70Q17.16-3.66 19.08-3.66L19.08-3.66Q19.17-3.84 19.27-4.50L19.27-4.50Q19.31-4.69 19.31-4.73L19.31-4.73L18.42-4.73Q18.05-4.73 17.44-4.69L17.44-4.69Q17.06-4.69 16.88-4.69L16.88-4.69L16.88-5.53Q17.48-5.48 18.47-5.48L18.47-5.48L21.47-5.48Q23.02-5.48 23.39-5.53ZM31.27-9.61L31.27-9.61Q32.44-9.47 32.53-9.28L32.53-9.28Q32.53-9.19 32.44-9.09L32.44-9.09Q32.34-9 32.34-8.95L32.34-8.95Q33.19-7.13 35.67-6.05L35.67-6.05Q35.20-5.72 34.97-5.06L34.97-5.06Q32.34-6.47 31.92-8.53L31.92-8.53Q31.22-6.84 29.11-4.78L29.11-4.78Q28.78-5.16 28.27-5.44L28.27-5.44Q30.52-6.89 31.27-9.61ZM33.28-4.27L33.28-4.27Q34.45-4.08 34.55-3.84L34.55-3.84Q34.55-3.80 34.41-3.66L34.41-3.66Q34.27-3.47 34.22-3.33L34.22-3.33Q34.17-3.23 34.13-3.05L34.13-3.05Q33.56-1.13 33.14-0.05L33.14-0.05L33.42-0.05Q34.45-0.05 34.92-0.09L34.92-0.09L34.92 0.70Q34.41 0.66 33.42 0.66L33.42 0.66L30.75 0.66Q29.44 0.66 28.97 0.70L28.97 0.70L28.97-0.14Q29.81-0.05 30.75-0.05L30.75-0.05L32.20-0.05Q33-1.88 33.28-4.27ZM30.98-4.08L31.97-4.22Q32.30-2.53 32.34-1.41L32.34-1.41L31.36-1.27Q31.31-2.81 30.98-4.08L30.98-4.08ZM29.30-3.80L30.14-3.98Q30.61-2.81 30.89-0.94L30.89-0.94L29.91-0.75Q29.77-2.77 29.30-3.80L29.30-3.80ZM27.33-2.11L27.33-2.11L27.33-1.22Q27.05-1.17 26.25-0.98L26.25-0.98Q25.03-0.70 24.75-0.66L24.75-0.66L24.56-1.73Q25.41-1.78 27.33-2.11ZM28.08-3.89L28.08-3.89Q28.36-3.89 28.88-3.94L28.88-3.94Q28.88-3.75 28.83-3.33L28.83-3.33Q28.73 0.09 28.41 0.42L28.41 0.42Q28.08 0.94 26.72 1.13L26.72 1.13Q26.53 1.17 26.44 1.17L26.44 1.17Q26.34 0.56 25.97 0.05L25.97 0.05Q27.23 0.23 27.56-0.14L27.56-0.14Q27.89-0.52 27.94-3.14L27.94-3.14Q26.91-3.05 25.08-2.91L25.08-2.91Q25.17-3.66 25.22-4.92L25.22-4.92Q25.27-6.38 25.22-6.98L25.22-6.98Q26.34-6.98 26.39-6.80L26.39-6.80Q26.39-6.75 26.34-6.61L26.34-6.61Q26.25-6.38 26.20-6.14L26.20-6.14Q26.20-6.05 26.16-5.81L26.16-5.81Q26.02-4.17 26.02-3.75L26.02-3.75Q26.11-3.75 26.53-3.75L26.53-3.75Q27.05-3.80 27.23-3.80L27.23-3.80Q27.42-6.56 27.52-7.78L27.52-7.78Q25.36-7.73 24.61-7.59L24.61-7.59L24.61-8.72Q25.22-8.67 25.92-8.63L25.92-8.63Q26.53-8.63 28.55-8.67L28.55-8.67Q28.27-6.42 28.08-3.89ZM30.14-4.88L30.14-5.72Q30.23-5.72 30.61-5.72L30.61-5.72Q31.27-5.67 31.50-5.67L31.50-5.67L32.11-5.67Q32.20-5.67 32.67-5.67L32.67-5.67Q33.47-5.72 33.70-5.72L33.70-5.72L33.70-4.83Q33.33-4.92 32.16-4.92L32.16-4.92L31.55-4.92Q30.56-4.92 30.14-4.88L30.14-4.88ZM37.31-8.95L38.30-9.47Q38.91-8.77 39.52-7.50L39.52-7.50L38.53-6.98Q37.92-8.30 37.31-8.95L37.31-8.95ZM40.31-7.73L40.31-8.86Q40.36-8.86 40.50-8.86L40.50-8.86Q41.30-8.77 41.86-8.77L41.86-8.77L45.42-8.77Q45.94-8.77 46.64-8.86L46.64-8.86Q46.78-8.86 46.83-8.86L46.83-8.86L46.83-7.73Q46.78-7.73 46.69-7.73L46.69-7.73Q46.03-7.83 45.47-7.83L45.47-7.83L44.11-7.83L44.11-5.06L44.81-5.06Q45.84-5.06 46.55-5.16L46.55-5.16Q46.64-5.16 46.64-5.16L46.64-5.16L46.64-4.13Q46.64-4.13 46.50-4.13L46.50-4.13Q45.75-4.22 44.81-4.22L44.81-4.22L44.11-4.22L44.11-0.52L45.56-0.52Q46.45-0.52 47.16-0.61L47.16-0.61Q47.25-0.61 47.25-0.61L47.25-0.61L47.25 0.42Q47.20 0.42 47.06 0.42L47.06 0.42Q46.45 0.33 45.61 0.33L45.61 0.33L40.97 0.33Q40.22 0.28 39.61 0.42L39.61 0.42Q39.52 0.42 39.52 0.42L39.52 0.42L39.52-0.56Q39.56-0.56 39.66-0.56L39.66-0.56Q40.27-0.47 40.88-0.47L40.88-0.47L40.88-4.31Q40.88-5.44 40.83-5.77L40.83-5.77Q41.91-5.77 42.05-5.63L42.05-5.63Q42.05-5.58 42-5.53L42-5.53Q41.77-5.16 41.77-4.17L41.77-4.17L41.77-0.52L43.13-0.52L43.13-7.83L41.91-7.83Q41.11-7.83 40.41-7.73L40.41-7.73Q40.31-7.73 40.31-7.73L40.31-7.73ZM36.47-5.11L36.47-6.19Q36.52-6.19 36.61-6.19L36.61-6.19Q37.17-6.09 37.69-6.09L37.69-6.09Q38.39-6.09 38.91-6.19L38.91-6.19Q38.95-6.09 38.77-1.22L38.77-1.22Q39.14-1.69 39.80-2.67L39.80-2.67L40.36-1.83Q38.91-0.23 38.39 0.38L38.39 0.38L37.64-0.28Q37.78-0.61 37.88-1.31L37.88-1.31Q37.88-2.53 37.97-5.20L37.97-5.20L37.73-5.20Q37.17-5.20 36.61-5.11L36.61-5.11Q36.52-5.11 36.47-5.11L36.47-5.11ZM57.42-8.67L55.41-8.67L55.41-7.41L57.42-7.41L57.42-8.67ZM55.22-1.97L55.22-0.52L57.38-0.52L57.38-1.97L55.22-1.97ZM52.45-0.52L52.45-1.92L50.63-1.92L50.63-0.52L52.45-0.52ZM57.14-5.95L57.14-5.95L56.53-5.58L57.09-5.58Q58.31-5.58 59.02-5.67L59.02-5.67L59.02-4.73Q58.03-4.83 57.05-4.83L57.05-4.83L54.66-4.83Q56.16-3.70 59.39-3.89L59.39-3.89Q59.06-3.47 58.97-2.77L58.97-2.77Q54.80-3.14 53.81-4.78L53.81-4.78Q52.97-3.19 48.94-2.67L48.94-2.67Q48.80-3.23 48.38-3.70L48.38-3.70Q51.75-3.66 52.97-4.83L52.97-4.83L50.77-4.83Q49.64-4.83 48.89-4.73L48.89-4.73L48.89-5.67Q49.73-5.58 50.77-5.58L50.77-5.58L53.20-5.58Q53.30-5.81 53.30-6.47L53.30-6.47Q54.47-6.38 54.47-6.33L54.47-6.33Q54.47-6.28 54.42-6.19L54.42-6.19Q54.23-5.91 54.19-5.58L54.19-5.58L56.20-5.58Q56.06-5.77 55.55-6.19L55.55-6.19L56.30-6.61Q56.63-6.38 57.14-5.95ZM52.50-8.67L50.53-8.67L50.53-7.41L52.50-7.41L52.50-8.67ZM53.44-2.77L53.44-2.77Q53.34-2.48 53.34-1.88L53.34-1.88L53.34 0.14Q53.34 0.66 53.44 0.89L53.44 0.89L52.36 0.89Q52.45 0.61 52.45 0.19L52.45 0.19L50.58 0.19Q50.58 0.61 50.67 0.98L50.67 0.98L49.69 0.98Q49.69 0.98 49.78 0.19L49.78 0.19L49.78-1.92Q49.78-2.53 49.69-2.77L49.69-2.77Q50.06-2.67 50.58-2.67L50.58-2.67L52.45-2.67Q52.69-2.67 53.44-2.77ZM58.27-2.81L58.27-2.81Q58.27-2.81 58.22-1.97L58.22-1.97L58.22 0.19Q58.22 0.56 58.31 0.84L58.31 0.84L57.23 0.84Q57.33 0.56 57.33 0.19L57.33 0.19L55.27 0.19Q55.27 0.61 55.36 0.89L55.36 0.89L54.28 0.89Q54.28 0.94 54.38 0.23L54.38 0.23L54.38-1.88Q54.38-2.16 54.28-2.81L54.28-2.81Q54.84-2.72 55.27-2.72L55.27-2.72L57.23-2.72Q57.70-2.72 58.27-2.81ZM58.41-9.52L58.41-9.52Q58.31-9.05 58.31-8.72L58.31-8.72L58.31-7.36Q58.31-6.89 58.41-6.56L58.41-6.56Q57.84-6.66 57.42-6.66L57.42-6.66L55.31-6.66Q55.22-6.66 54.89-6.61L54.89-6.61Q54.56-6.61 54.42-6.56L54.42-6.56Q54.52-7.03 54.52-7.36L54.52-7.36L54.52-8.67Q54.52-9.19 54.42-9.52L54.42-9.52Q54.94-9.42 55.36-9.42L55.36-9.42L57.42-9.42Q57.94-9.42 58.41-9.52ZM50.48-9.42L50.48-9.42L52.45-9.42Q53.02-9.42 53.44-9.52L53.44-9.52Q53.34-9.14 53.34-8.63L53.34-8.63L53.34-7.41Q53.34-6.94 53.44-6.56L53.44-6.56Q52.97-6.66 52.50-6.66L52.50-6.66L50.53-6.66Q49.92-6.66 49.59-6.56L49.59-6.56Q49.69-7.03 49.69-7.36L49.69-7.36L49.69-8.63Q49.69-9.09 49.59-9.56L49.59-9.56Q49.92-9.42 50.48-9.42Z" transform="translate(-0.515625, 9.703125)"/>
        </g>
      </g>
    </g>
  </g>
</svg>